<mxfile host="app.diagrams.net" modified="2024-07-18T02:19:07.781Z" agent="Mozilla/5.0 (Windows NT 10.0; Win64; x64) AppleWebKit/537.36 (KHTML, like Gecko) Chrome/126.0.0.0 Safari/537.36" version="24.7.1" etag="G_SCUsEPQh35MEaZ3wmb" type="github">
  <diagram name="Page-1" id="V_YAQP5BvO3JkXiALPp_">
    <mxGraphModel>
      <root>
        <mxCell id="0" />
        <mxCell id="1" parent="0" />
      </root>
    </mxGraphModel>
  </diagram>
</mxfile>
